HIERARCHY
ROOT Hips
{
    OFFSET   0.000000   0.000000   0.000000
    CHANNELS 6 Xposition Yposition Zposition Zrotation Xrotation Yrotation
    JOINT Chest
    {
        OFFSET   0.000000   8.007230   0.000000
        CHANNELS 3 Zrotation Xrotation Yrotation
        JOINT Chest2
        {
            OFFSET   0.000000  22.077100   0.000000
            CHANNELS 3 Zrotation Xrotation Yrotation
            JOINT Neck
            {
                OFFSET   0.000000  23.254800   0.000000
                CHANNELS 3 Zrotation Xrotation Yrotation
                JOINT Head
                {
                    OFFSET   0.000010  14.370000   1.956600
                    CHANNELS 3 Zrotation Xrotation Yrotation
                    End Site
                    {
                        OFFSET   0.000000  19.566000   0.000000
                    }
                }
            }
            JOINT LeftCollar
            {
                OFFSET   3.911900  19.017000  -0.467062
                CHANNELS 3 Zrotation Xrotation Yrotation
                JOINT LeftShoulder
                {
                    OFFSET  10.383700   0.000000   0.000000
                    CHANNELS 3 Zrotation Xrotation Yrotation
                    JOINT LeftElbow
                    {
                        OFFSET  26.662100   0.001193   0.000835
                        CHANNELS 3 Zrotation Xrotation Yrotation
                        JOINT LeftWrist
                        {
                            OFFSET  28.869000  -0.000058  -0.000075
                            CHANNELS 3 Zrotation Xrotation Yrotation
                            JOINT LeftFinger0
                            {
                                OFFSET   2.044660  -2.323460   3.252850
                                CHANNELS 3 Zrotation Xrotation Yrotation
                                JOINT LeftFinger01
                                {
                                    OFFSET   3.088130   0.000000   0.000000
                                    CHANNELS 3 Zrotation Xrotation Yrotation
                                    JOINT LeftFinger02
                                    {
                                        OFFSET   2.639450   0.000000   0.000000
                                        CHANNELS 3 Zrotation Xrotation Yrotation
                                        End Site
                                        {
                                            OFFSET   2.582190   0.000000   0.000000
                                        }
                                    }
                                }
                            }
                            JOINT LeftFinger1
                            {
                                OFFSET   8.364480   0.000000   3.252850
                                CHANNELS 3 Zrotation Xrotation Yrotation
                                JOINT LeftFinger11
                                {
                                    OFFSET   4.646920   0.000000   0.000000
                                    CHANNELS 3 Zrotation Xrotation Yrotation
                                    JOINT LeftFinger12
                                    {
                                        OFFSET   2.323460   0.000000   0.000000
                                        CHANNELS 3 Zrotation Xrotation Yrotation
                                        End Site
                                        {
                                            OFFSET   2.273050   0.000000   0.000000
                                        }
                                    }
                                }
                            }
                            JOINT LeftFinger2
                            {
                                OFFSET   8.364490   0.000016   1.078090
                                CHANNELS 3 Zrotation Xrotation Yrotation
                                JOINT LeftFinger21
                                {
                                    OFFSET   5.111620   0.000000   0.000000
                                    CHANNELS 3 Zrotation Xrotation Yrotation
                                    JOINT LeftFinger22
                                    {
                                        OFFSET   2.788150   0.000012   0.000000
                                        CHANNELS 3 Zrotation Xrotation Yrotation
                                        End Site
                                        {
                                            OFFSET   2.727660   0.000000   0.000000
                                        }
                                    }
                                }
                            }
                            JOINT LeftFinger3
                            {
                                OFFSET   7.899780   0.000014  -1.078090
                                CHANNELS 3 Zrotation Xrotation Yrotation
                                JOINT LeftFinger31
                                {
                                    OFFSET   4.646930   0.000000   0.000000
                                    CHANNELS 3 Zrotation Xrotation Yrotation
                                    JOINT LeftFinger32
                                    {
                                        OFFSET   2.323470   0.000000   0.000000
                                        CHANNELS 3 Zrotation Xrotation Yrotation
                                        End Site
                                        {
                                            OFFSET   2.273050   0.000000   0.000000
                                        }
                                    }
                                }
                            }
                            JOINT LeftFinger4
                            {
                                OFFSET   7.435090   0.000000  -3.252850
                                CHANNELS 3 Zrotation Xrotation Yrotation
                                JOINT LeftFinger41
                                {
                                    OFFSET   3.717550   0.000000   0.000000
                                    CHANNELS 3 Zrotation Xrotation Yrotation
                                    JOINT LeftFinger42
                                    {
                                        OFFSET   1.858770   0.000000   0.000000
                                        CHANNELS 3 Zrotation Xrotation Yrotation
                                        End Site
                                        {
                                            OFFSET   1.818440   0.000000   0.000000
                                        }
                                    }
                                }
                            }
                        }
                    }
                }
            }
            JOINT RightCollar
            {
                OFFSET  -3.911900  19.017000  -0.467063
                CHANNELS 3 Zrotation Xrotation Yrotation
                JOINT RightShoulder
                {
                    OFFSET -10.383700   0.000023   0.000000
                    CHANNELS 3 Zrotation Xrotation Yrotation
                    JOINT RightElbow
                    {
                        OFFSET -26.662100   0.001246   0.001011
                        CHANNELS 3 Zrotation Xrotation Yrotation
                        JOINT RightWrist
                        {
                            OFFSET -28.869000  -0.000026  -0.000078
                            CHANNELS 3 Zrotation Xrotation Yrotation
                            JOINT RightFinger0
                            {
                                OFFSET  -2.044660  -2.323490   3.252850
                                CHANNELS 3 Zrotation Xrotation Yrotation
                                JOINT RightFinger01
                                {
                                    OFFSET  -3.088130   0.000000   0.000000
                                    CHANNELS 3 Zrotation Xrotation Yrotation
                                    JOINT RightFinger02
                                    {
                                        OFFSET  -2.639460   0.000000   0.000000
                                        CHANNELS 3 Zrotation Xrotation Yrotation
                                        End Site
                                        {
                                            OFFSET  -2.582190   0.000000   0.000000
                                        }
                                    }
                                }
                            }
                            JOINT RightFinger1
                            {
                                OFFSET  -8.364480   0.000000   3.252850
                                CHANNELS 3 Zrotation Xrotation Yrotation
                                JOINT RightFinger11
                                {
                                    OFFSET  -4.646920   0.000000   0.000000
                                    CHANNELS 3 Zrotation Xrotation Yrotation
                                    JOINT RightFinger12
                                    {
                                        OFFSET  -2.323470   0.000000   0.000000
                                        CHANNELS 3 Zrotation Xrotation Yrotation
                                        End Site
                                        {
                                            OFFSET  -2.273050   0.000000   0.000000
                                        }
                                    }
                                }
                            }
                            JOINT RightFinger2
                            {
                                OFFSET  -8.364480   0.000000   1.078090
                                CHANNELS 3 Zrotation Xrotation Yrotation
                                JOINT RightFinger21
                                {
                                    OFFSET  -5.111620   0.000000   0.000000
                                    CHANNELS 3 Zrotation Xrotation Yrotation
                                    JOINT RightFinger22
                                    {
                                        OFFSET  -2.788160   0.000000   0.000000
                                        CHANNELS 3 Zrotation Xrotation Yrotation
                                        End Site
                                        {
                                            OFFSET  -2.727660   0.000000   0.000000
                                        }
                                    }
                                }
                            }
                            JOINT RightFinger3
                            {
                                OFFSET  -7.899780   0.000000  -1.078090
                                CHANNELS 3 Zrotation Xrotation Yrotation
                                JOINT RightFinger31
                                {
                                    OFFSET  -4.646930   0.000000   0.000000
                                    CHANNELS 3 Zrotation Xrotation Yrotation
                                    JOINT RightFinger32
                                    {
                                        OFFSET  -2.323470   0.000000   0.000000
                                        CHANNELS 3 Zrotation Xrotation Yrotation
                                        End Site
                                        {
                                            OFFSET  -2.273050   0.000000   0.000000
                                        }
                                    }
                                }
                            }
                            JOINT RightFinger4
                            {
                                OFFSET  -7.435090   0.000000  -3.252850
                                CHANNELS 3 Zrotation Xrotation Yrotation
                                JOINT RightFinger41
                                {
                                    OFFSET  -3.717550   0.000000   0.000000
                                    CHANNELS 3 Zrotation Xrotation Yrotation
                                    JOINT RightFinger42
                                    {
                                        OFFSET  -1.858760   0.000000   0.000000
                                        CHANNELS 3 Zrotation Xrotation Yrotation
                                        End Site
                                        {
                                            OFFSET  -1.818440   0.000000   0.000000
                                        }
                                    }
                                }
                            }
                        }
                    }
                }
            }
        }
    }
    JOINT LeftHip
    {
        OFFSET   9.783010   0.000000   0.000000
        CHANNELS 3 Zrotation Xrotation Yrotation
        JOINT LeftKnee
        {
            OFFSET   0.000073 -41.789100   0.001749
            CHANNELS 3 Zrotation Xrotation Yrotation
            JOINT LeftAnkle
            {
                OFFSET   0.000111 -41.133200  -0.000179
                CHANNELS 3 Zrotation Xrotation Yrotation
                JOINT LeftToe
                {
                    OFFSET   0.000000  -6.358960  14.674500
                    CHANNELS 3 Zrotation Xrotation Yrotation
                    End Site
                    {
                        OFFSET   0.000000   0.000000   3.913200
                    }
                }
            }
        }
    }
    JOINT RightHip
    {
        OFFSET  -9.783010   0.000000   0.000000
        CHANNELS 3 Zrotation Xrotation Yrotation
        JOINT RightKnee
        {
            OFFSET   0.000424 -41.789200   0.005205
            CHANNELS 3 Zrotation Xrotation Yrotation
            JOINT RightAnkle
            {
                OFFSET   0.000000 -41.133200  -0.000155
                CHANNELS 3 Zrotation Xrotation Yrotation
                JOINT RightToe
                {
                    OFFSET   0.000000  -6.358960  14.674500
                    CHANNELS 3 Zrotation Xrotation Yrotation
                    End Site
                    {
                        OFFSET   0.000000   0.000000   3.913200
                    }
                }
            }
        }
    }
}
MOTION
Frames: 4
Frame Time:   0.016667
  1.411090  89.492500   0.783412  -3.431570 -15.389900  -0.678619   1.258370   9.523560   3.471640   1.962410  19.103500   6.873020   2.182340   0.926068  -0.034567   3.608160   1.869500 -15.616200  -6.559930  -7.504700  -1.850340 -73.141500  21.142900  -3.133040  -0.931752  -8.212490 -16.834700  12.533300  -4.588270   0.027249  38.713700  34.662800 -62.078500 -34.672200  -0.005700   0.003952 -12.336100  -0.003626  -0.000879 -32.904300   5.462530  -8.371280 -27.249100   0.003876  -0.000254 -19.074400   0.003157  -0.001170 -28.606600  -2.030950   3.717760 -38.574900   0.000384  -0.003712 -25.690900   0.002016   0.000194 -28.524000  -2.025580   3.720700 -37.287200   0.000154   0.000619 -24.833300  -0.001243  -0.001672 -33.923800  -2.366990   3.513590 -50.993500  -0.006496  -0.002530 -33.961600   0.001184  -0.003945   8.822910  -4.754130  13.110600  35.759700  -0.511300  64.623100 -35.737400 -16.269300  38.624500 -19.371300 -17.833200  -9.019720 -38.359900  43.744400  61.609400  45.754200   0.003058  -0.002939  22.860500   0.007668   0.009730   1.691580  -0.087292  -3.243860   1.388840   0.002220  -0.002490   0.972184   0.001531   0.001210  84.524400  -3.033940  -0.374619  84.538300  -0.008609  -0.002894  63.403700  -0.004946   0.004832  87.906900  -4.989460  -0.211311  87.690900  -0.037340  -0.009458  65.768100  -0.018479   0.022455  88.442200  -9.991150  -0.291278 110.000000  -0.004052  -0.003243  79.999900  -0.002389   0.003782   2.819430  18.623100   4.175890   0.985957   0.065763   1.976860  -1.251840  -3.750830  -0.000337  -0.000000   0.000000   0.000000   3.612340  16.563000  -1.993630  -0.891212   3.534760  -5.103370   0.025564  -5.528270  -1.596330   0.000000   0.000000  -0.000000
  1.407000  89.487300   0.791251  -3.475690 -15.403000  -0.774720   1.258000   9.488890   3.495710   1.958770  19.036100   6.922630   2.216510   0.979231  -0.035863   3.644040   1.976700 -15.612600  -6.561840  -7.470510  -1.865400 -73.143800  21.212100  -3.119020  -0.912933  -8.188310 -16.768300  12.523300  -4.509090   0.010093  38.694200  34.623000 -62.015200 -34.675200  -0.005709   0.003968 -12.337600  -0.003617  -0.000854 -32.881400   5.447910  -8.354700 -27.228700   0.003824  -0.000821 -19.060100   0.003179  -0.001841 -28.605700  -2.038380   3.731700 -38.530600   0.000644  -0.004139 -25.661400   0.002300   0.000000 -28.522900  -2.032980   3.734650 -37.251700   0.000180   0.000620 -24.809600  -0.001298  -0.001678 -33.908600  -2.374770   3.527390 -50.972700  -0.006442  -0.002558 -33.947800   0.001187  -0.003900   8.776550  -4.649930  13.145600  34.965600  -0.760840  65.214300 -34.597300 -16.663400  36.364100 -17.470900 -17.564200  -9.831790 -39.421700  43.753300  62.632700  44.169100   0.002965  -0.002823  21.046200   0.002871   0.000688   1.305290  -0.034022  -1.220620   1.071610   0.001963  -0.002340   0.750129   0.001335   0.001013  85.219600  -1.040290  -0.082334  85.223100   0.002093  -0.000079  63.917300   0.000686  -0.001412  89.065800  -5.000560  -0.077311  89.326500  -0.000153  -0.001449  66.994800  -0.000845  -0.000163  89.221600 -10.001300  -0.128903 110.000000  -0.004012  -0.003255  79.999900  -0.002374   0.003698   2.827840  18.642500   4.187350   0.984923   0.095567   2.013500  -1.240630  -3.780990   0.040708   0.000000   0.000000  -0.000000   3.633130  16.564900  -1.971060  -0.904228   3.553300  -5.068140   0.030888  -5.522750  -1.566410  -0.000000   0.000000  -0.000000
  1.395610  89.489700   0.795241  -3.515120 -15.412400  -0.842526   1.247500   9.478810   3.545620   1.927640  19.017900   7.026570   2.277410   0.968055  -0.035812   3.728770   1.953990 -15.714600  -6.566530  -7.501950  -1.911120 -73.118100  21.281200  -3.125850  -0.895812  -8.147860 -16.740100  12.523900  -4.497260  -0.014880  38.677300  34.540300 -61.896300 -34.642100  -0.005724   0.003992 -12.321000  -0.003620  -0.000836 -32.853400   5.459310  -8.379010 -27.207400   0.003834  -0.001339 -19.045200   0.003203  -0.002551 -28.606900  -2.024760   3.706900 -38.498500   0.001052  -0.004557 -25.640000   0.002542  -0.000177 -28.520700  -2.019370   3.709840 -37.221400   0.000210   0.000618 -24.789500  -0.001358  -0.001684 -33.907400  -2.358960   3.503940 -50.970900  -0.006388  -0.002586 -33.946700   0.001188  -0.003854   8.774610  -4.693850  13.132900  34.711200  -1.014790  65.349000 -33.510000 -16.611900  35.006600 -16.351900 -17.220500  -9.765670 -39.960800  43.702300  63.029300  43.236400   0.002827  -0.002597  20.060700   0.002681   0.000696   1.086840  -0.001592  -0.124095   0.891636   0.001678  -0.002201   0.624137   0.001128   0.000813  85.489800  -0.156742   0.001840  85.490100   0.001130   0.000146  64.117500   0.001081  -0.000868  89.050400  -5.001030  -0.080343  90.038400   0.000440  -0.000938  67.528700  -0.000145  -0.000753  89.103400 -10.001300  -0.151224 110.000000  -0.003973  -0.003266  79.999900  -0.002369   0.003612   2.834200  18.680600   4.205360   0.991022   0.072703   2.026630  -1.228580  -3.782890   0.070745  -0.000000   0.000000  -0.000000   3.660930  16.563500  -1.959580  -0.919629   3.570730  -5.053180   0.034251  -5.520340  -1.538470  -0.000000   0.000000   0.000000
  1.385950  89.493200   0.798201  -3.545020 -15.416800  -0.871520   1.234640   9.476940   3.595200   1.894380  19.011900   7.129880   2.336380   0.927289  -0.035452   3.841290   1.871350 -15.876700  -6.569990  -7.534190  -1.957970 -73.082500  21.322700  -3.136340  -0.877083  -8.096210 -16.733500  12.530300  -4.495570  -0.038770  38.670400  34.456500 -61.764600 -34.586700  -0.005738   0.004016 -12.293300  -0.003625  -0.000819 -32.823400   5.475550  -8.414860 -27.185400   0.003905  -0.001793 -19.029700   0.003227  -0.002949 -28.608300  -2.004590   3.670230 -38.468400   0.001562  -0.004968 -25.619900   0.002734  -0.000323 -28.517800  -1.999210   3.673160 -37.190700   0.000241   0.000613 -24.769000  -0.001419  -0.001691 -33.909800  -2.335600   3.469230 -50.970700  -0.006332  -0.002614 -33.946500   0.001188  -0.003808   8.784500  -4.757970  13.101500  34.765700  -1.178790  65.373800 -33.004700 -16.358400  34.456200 -15.750500 -16.993700  -9.663790 -40.301900  43.649700  63.257600  42.733900   0.002648  -0.002372  19.526300   0.002633   0.000705   0.989343   0.021817   0.694595   0.811102   0.001367  -0.002061   0.567755   0.000901   0.000618  85.531600   0.151359   0.013863  85.531700  -0.000440   0.000213  64.148700   0.001198   0.000208  89.026400  -5.001160  -0.084463  90.321200   0.000570  -0.000792  67.740800   0.000000  -0.000907  88.984700 -10.001200  -0.176294 110.000000  -0.003934  -0.003275  79.999900  -0.002366   0.003523   2.842910  18.705800   4.222440   0.999989   0.049841   2.028510  -1.217440  -3.784790   0.084024  -0.000000   0.000000  -0.000000   3.690600  16.561300  -1.951150  -0.933260   3.585300  -5.050640   0.035874  -5.519910  -1.524140  -0.000000   0.000000   0.000000
